#!OML:ASF E:/inclinewalkrobotboard/Project1/Captureday1/Session1/subject1.ASF
:FULLY-SPECIFIED
:DEGREES
76
root 0 0 0 -3.218839387114996 0.15017653862438074 -0.9701023536665891
lowerback 10.708163301923928 -1.5851461641868956 -1.0595866140395074
upperback 0.5406854662206448 -2.045250213022258 2.6101439643591453
thorax -5.331296327695052 -0.9646901312359653 3.611162591634857
lowerneck -17.70348420097322 -2.7811557336383594 -2.4052106875560617
upperneck 16.47951986010444 -3.02749570419606 -0.3222141408826362
head 7.925366007323678 -1.6742061530259185 -0.10143213952752522
rclavicle 1.7072521417478615E-16 -2.0398332686825288E-17
rhumerus -33.98148190680717 -27.40241147706616 -79.2299396547514
rradius 18.00128272906384
rwrist 9.86024075226949
rhand -18.597669362776962 24.330082349753027
rfingers 7.125020000000015
rthumb 7.713809104721665 -5.596956644119064
lclavicle 2.1583813834039336E-15 8.20036645524943E-16
lhumerus -27.877375721070244 -3.619614789264262 83.46734812040397
lradius 30.33437008662968
lwrist 7.82608972944673
lhand -28.19545365575761 25.540264379355357
lfingers 7.125020000000033
lthumb -1.5793390346165186 55.54202072115042
rfemur -14.870263869483733 6.679790824320669 28.99953310301536
rtibia 33.05107627106689
rfoot -10.672556260337764 -7.16958953966739
rtoes 5.476272105749979
lfemur -0.4625053322258328 -2.140561241585433 -20.088089895493866
ltibia 48.71169330301397
lfoot 4.483695138896376 -13.32506049047711
ltoes -1.3951220751285334
77
root 0 0 0 -3.6691589011360772 -0.47248888371533315 -2.131254226388938
lowerback 10.934488837394195 -1.3323508313094994 0.12383966711356975
upperback 0.4424251583118014 -1.5640124205455657 2.7314697677599824
thorax -5.592214745985378 -0.7528120040166473 3.0059208007862814
lowerneck -18.180906183110693 -2.7107025158178852 -2.1798405395985494
upperneck 16.46455543014003 -3.0099585050604105 -0.35650068907552956
head 8.081803830183608 -1.635633111715456 -0.14918457110392325
rclavicle -3.955228755367795E-16 -1.7702140004666358E-15
rhumerus -33.53656404601814 -26.865114516281917 -79.30381171367485
rradius 17.707553115208157
rwrist 10.471076800909227
rhand -18.383936765251413 24.790219739220284
rfingers 7.125020000000015
rthumb 7.916653040709849 -5.113280123106282
lclavicle -3.624406723193413E-16 -1.292992601808428E-15
lhumerus -28.33154352505829 -2.9202513508690524 84.14896502747335
lradius 29.0826133510309
lwrist 7.267326446403308
lhand -28.13774990849211 25.77892264829015
lfingers 7.125020000000039
lthumb -1.5131417451965792 55.79769422235754
rfemur -8.100700253052057 7.543300124782691 33.32677464476855
rtibia 36.03564826917173
rfoot -11.699986007308883 -5.6144648238517565
rtoes 8.50687666325892
lfemur -8.648851633728395 1.7324063324232055 -17.91260939528031
ltibia 55.50509789662032
lfoot 7.979913069219148 -15.48750304090678
ltoes -2.443788482758432
78
root 0 0 0 -4.125410700303261 -2.0517466642784603 -4.17826403553641
lowerback 9.737024312456912 -0.4995051933657383 1.9937005241565566
upperback -0.22508976794352992 -0.2278474665264023 2.8183288194112777
thorax -5.630262935401868 -0.1317104353853007 1.8840065923758154
lowerneck -18.48085939629213 -2.7843889853962684 -1.7905487950732928
upperneck 19.29467246723226 -3.3879294596301004 -0.006066857680325999
head 9.261735436277538 -1.695000917198026 -0.16430256416062022
rclavicle -8.404287133369379E-16 -2.1650702438997495E-15
rhumerus -33.29007379566958 -25.45605276480759 -79.84026435752652
rradius 17.855366708829784
rwrist 10.866947852871046
rhand -18.1606905079319 25.23128115794497
rfingers 7.125020000000017
rthumb 8.130813740405072 -4.623168729066052
lclavicle -2.704611750329414E-15 -1.7687724845074087E-15
lhumerus -28.85909174578726 -1.829922443816652 84.77182369024864
lradius 27.348643393758778
lwrist 6.4806648257221
lhand -28.12985038796917 26.03361192259091
lfingers 7.125020000000044
lthumb -1.50487812268471 56.06383877520946
rfemur -5.901779590675873 7.756424406259924 34.73254239795101
rtibia 36.44083390346097
rfoot -13.240937739149935 -5.3946940560009615
rtoes 9.275606746309142
lfemur -14.331164151745893 3.4574373178053426 -16.667964028133735
ltibia 58.168376025338716
lfoot 6.243168585831555 -13.904727381905797
ltoes -3.2295829792872652
79
root 0 0 0 -3.743670577474916 -4.194433140856196 -7.182088087733959
lowerback 7.748468355339606 1.0052538631492738 4.99417256608113
upperback -0.8625139044370563 2.151516845558162 2.9672915729217406
thorax -5.104274188134507 0.9782891017994967 0.05113962963060836
lowerneck -18.134062499553448 -3.2599173973546143 -1.7385730080268504
upperneck 23.403585134556444 -4.262728456570926 0.6554650292069399
head 10.588835458409665 -2.0044276714049536 -0.09981294394471046
rclavicle -1.989069907211134E-15 -3.5738913762738076E-16
rhumerus -33.4685062977307 -22.80528097814321 -81.06526381566671
rradius 18.227240365802828
rwrist 10.006889745650092
rhand -17.961889841484016 25.788109855351784
rfingers 7.125020000000018
rthumb 8.323020691638408 -4.004075952125831
lclavicle -4.7819104768331695E-15 -3.1537868677393937E-18
lhumerus -29.669707493667076 -0.9494385764625813 85.25133265082732
lradius 26.164068819229797
lwrist 6.0115104537198985
lhand -28.04027838766143 26.216070215437085
lfingers 7.125020000000045
lthumb -1.4250147130902828 56.244317551264615
rfemur -3.8543236275304014 7.960435267156463 35.00903518548083
rtibia 33.699917014796995
rfoot -15.491368815437816 -5.607091013125714
rtoes 8.751229835801697
lfemur -24.97130593727004 3.372169465698353 -11.764166933099366
ltibia 56.859766063375204
lfoot 2.446830925835698 -8.095945251172466
ltoes -8.17800027712645
80
root 0 0 0 -2.6288521348371012 -5.517963018159561 -7.790438837299643
lowerback 11.339712204215193 1.953365193912897 6.450099072987183
upperback 1.0319151481080566 3.5534197281149975 2.6927362168279667
thorax -5.046957154356125 1.6354345188348405 -1.2989186901359675
lowerneck -17.138785830062712 -3.605885668414025 -2.1245081600570144
upperneck 22.424541498366217 -4.589203613163865 0.7714237493386383
head 10.072339890765587 -2.2178058431322842 -0.019977787078456433
rclavicle -2.7292686048946994E-15 2.5489968049483667E-15
rhumerus -32.5466438082276 -17.89253042088376 -82.27887995389369
rradius 20.882606090385174
rwrist 7.5482977254157495
rhand -18.226974572124064 27.55472059154272
rfingers 7.125020000000021
rthumb 8.068270771799272 -2.2133980252649863
lclavicle -6.110525778378672E-15 2.209752563981649E-15
lhumerus -30.62247872289743 -0.36749590774371066 86.07731786513523
lradius 25.289668042662896
lwrist 5.762055208772005
lhand -27.8574193614879 26.33561849881041
lfingers 7.125020000000046
lthumb -1.2508644023027964 56.3713139648505
rfemur -0.8758297964783779 8.391532410566697 35.06828022205051
rtibia 28.876061925182782
rfoot -18.148691093614985 -6.054048282059258
rtoes 6.871523865401464
lfemur -30.52361328775366 2.0133611394076354 -9.909122583753273
ltibia 50.92480008349544
lfoot -0.6735569877836305 -3.35147148804374
ltoes -9.40062765767139
